<?xml version="1.0" encoding="UTF-8" standalone="no"?>
<!-- Generator: Adobe Illustrator 19.2.1, SVG Export Plug-In . SVG Version: 6.00 Build 0)  -->

<svg
   xmlns:dc="http://purl.org/dc/elements/1.1/"
   xmlns:cc="http://creativecommons.org/ns#"
   xmlns:rdf="http://www.w3.org/1999/02/22-rdf-syntax-ns#"
   xmlns:svg="http://www.w3.org/2000/svg"
   xmlns="http://www.w3.org/2000/svg"
   xmlns:sodipodi="http://sodipodi.sourceforge.net/DTD/sodipodi-0.dtd"
   xmlns:inkscape="http://www.inkscape.org/namespaces/inkscape"
   version="1.1"
   id="Calque_1"
   x="0px"
   y="0px"
   viewBox="0 0 408.70001 84.5"
   xml:space="preserve"
   inkscape:version="0.92.2 5c3e80d, 2017-08-06"
   sodipodi:docname="quantstack_min.svg"
   width="408.70001"
   height="84.5"><metadata
     id="metadata9"><rdf:RDF><cc:Work
         rdf:about=""><dc:format>image/svg+xml</dc:format><dc:type
           rdf:resource="http://purl.org/dc/dcmitype/StillImage" /><dc:title></dc:title></cc:Work></rdf:RDF></metadata><defs
     id="defs7" /><sodipodi:namedview
     pagecolor="#ffffff"
     bordercolor="#666666"
     borderopacity="1"
     objecttolerance="10"
     gridtolerance="10"
     guidetolerance="10"
     inkscape:pageopacity="0"
     inkscape:pageshadow="2"
     inkscape:window-width="1217"
     inkscape:window-height="619"
     id="namedview5"
     showgrid="false"
     fit-margin-top="0"
     fit-margin-left="0"
     fit-margin-right="0"
     fit-margin-bottom="0"
     inkscape:zoom="1.4668219"
     inkscape:cx="194.18364"
     inkscape:cy="-22.303622"
     inkscape:window-x="2"
     inkscape:window-y="24"
     inkscape:window-maximized="0"
     inkscape:current-layer="Calque_1" /><path
     d="m 202.7,48.6 c -2.1,-1.5 -3.7,-2.8 -4.4,-3.7 -1.6,-1.9 -2.5,-4 -2.6,-4.1 -1,-2.3 -1.4,-4.7 -1.2,-7.3 v 0 V 20 h -10.4 l -1.6,-3.1 h 12 V 6 h 3.3 v 10.8 h 12.1 l -1.6,3.1 h -10.4 v 14.5 c 0,1.8 0.3,3.5 1,5 0,0 0.8,1.7 2,3.2 0.6,0.6 1.8,1.7 3.4,2.9 z M 100,47.8 c 0,-10.2 9.7,-12.6 29.5,-13.4 -0.6,-9.3 -3.7,-15.2 -14.6,-15.2 -3,0 -5.8,0.5 -8.6,1.8 l -1.5,-2.9 c 3.3,-1.7 6.7,-2.1 10.1,-2.1 13,0 18.1,7 18.1,22.1 0,15 -5.1,22.1 -18.1,22.1 h -0.7 C 103.2,60.1 100,55.1 100,47.8 Z m 3.5,0.1 c 0,2.8 0.5,4.9 1.9,6.4 0.4,0.5 1,0.9 1.7,1.2 2.6,1.1 5.2,1.5 7.9,1.5 12.2,0 14.7,-7.4 14.7,-18.9 v -0.7 c -16.7,0.8 -26.2,2.2 -26.2,10.5 z m 59.1,-32 h -1.9 c -12.5,0 -14.2,10.5 -14.2,19.7 v 22.2 c 1,0.9 2.2,1.6 3.4,2.2 V 36.7 c 0,-10.4 1.5,-17.7 11.4,-17.7 h 0.9 c 9.8,0 11.4,7.3 11.4,17.7 v 23.4 c 1.2,-0.6 2.4,-1.3 3.4,-2.2 V 35.7 c -0.2,-9.3 -2,-19.8 -14.4,-19.8 z m 91.5,19.8 c -2.5,-2.9 -7.4,-4.4 -16,-7.5 -1.9,-0.7 -3.6,-1.3 -5.3,-2.1 v 0 c -5.1,-2.1 -8.7,-4.8 -8.7,-10.8 0,-9.2 6.4,-12.1 14.5,-12.1 3.8,0 7.5,0.4 11.2,1.7 L 251.3,2 c -4,-1.5 -8.3,-2 -12.8,-2 -9.4,0 -17.7,4.1 -17.7,15.4 0,6.7 3.4,10.4 8.6,12.9 v 0 c 0.8,0.3 1.4,0.6 2.1,0.9 v 0 0 c 1.9,0.8 3.3,1.4 5.1,2 8.4,3 12.3,3.5 15.1,6.6 0.2,0.2 4.1,4.8 3.1,10.4 -0.5,2.9 -2.2,5.5 -4.9,7.8 -6.2,5.1 -15.9,4 -25.2,0.9 l -1.6,3.1 c 5.1,1.8 10.4,3 15.4,3 5.1,0 9.7,-1.2 13.5,-4.3 4.2,-3.5 5.7,-7.2 6.1,-9.8 1.1,-7 -3.5,-12.6 -4,-13.2 z M 57.2,82.2 c -0.9,0.9 -1.8,1.7 -2.9,2.3 C 45,79.7 38.3,71.4 34.9,60.6 31.7,62.2 27.8,63 23.1,63 6.5,63 0,53.3 0,32.3 0,11.4 6.5,1.6 23.1,1.6 c 16.6,0 23.1,9.7 23.1,30.7 0,13 -2.5,21.6 -8.4,26.4 3.2,10.9 10,19 19.4,23.5 z M 42.7,32.3 C 42.7,15.9 39.4,4.8 23,4.8 6.6,4.8 3.3,15.8 3.3,32.3 c 0,16.4 3.3,27.5 19.7,27.5 16.4,0 19.7,-11 19.7,-27.5 z M 360.6,57 c -12.2,0 -14.7,-7.4 -14.7,-18.9 0,-11.5 2.5,-18.9 14.7,-18.9 3.1,0 6,0.5 8.8,1.9 l 1.5,-2.9 c -3.4,-1.7 -6.9,-2.1 -10.2,-2.1 -13,0 -18.1,7 -18.1,22.1 0,15 5.1,22.1 18.1,22.1 3.4,0 6.9,-0.4 10.3,-2.1 l -1.5,-2.9 c -3,1.2 -5.9,1.7 -8.9,1.7 z m -79.3,-3.9 c -1.3,-1.5 -2,-3.2 -2,-3.2 -0.7,-1.6 -1,-3.3 -1,-5 V 20.2 h 12 l -1.6,-3.1 H 278.3 V 6.2 H 275 V 17 h -10.5 l -1.6,3.1 H 275 v 23.7 0 c -0.1,2.6 0.3,5.1 1.2,7.3 0,0.1 1,2.2 2.6,4.1 0.8,0.9 2.4,2.3 4.6,3.8 l 1.5,-3.1 c -1.8,-1.1 -3,-2.1 -3.6,-2.8 z M 408.7,21.9 C 408,21 407.2,20.2 406.3,19.5 L 388,37.7 v -22 h -0.4 c -1.1,0.2 -2,0.5 -3,0.8 v 42.6 c 1.1,0.4 2.2,0.6 3.4,0.9 V 38.7 l 17.8,17.8 c 0.9,-0.7 1.7,-1.4 2.5,-2.3 l -16,-16 z m -320,-3.7 c -1,-0.9 -2.2,-1.6 -3.4,-2.2 v 23.4 c 0,10.4 -1.5,17.7 -11.4,17.7 H 73 C 63.2,57.1 61.6,49.8 61.6,39.4 V 15.9 c -1.2,0.6 -2.4,1.3 -3.4,2.2 V 40.3 C 58.2,49.5 60,60 72.4,60 h 2.1 C 87,60 88.7,49.5 88.7,40.3 Z m 209.6,29.6 c 0,-10.2 9.7,-12.6 29.5,-13.4 -0.6,-9.3 -3.7,-15.2 -14.6,-15.2 -3,0 -5.8,0.5 -8.6,1.8 l -1.5,-2.9 c 3.3,-1.7 6.7,-2.1 10.1,-2.1 13,0 18.1,7 18.1,22.1 0,15 -5.1,22.1 -18.1,22.1 h -0.7 c -11,-0.1 -14.2,-5.1 -14.2,-12.4 z m 3.5,0.1 c 0,2.8 0.5,4.9 1.9,6.4 0.4,0.5 1,0.9 1.7,1.2 2.6,1.1 5.2,1.5 7.9,1.5 12.2,0 14.7,-7.4 14.7,-18.9 v -0.7 c -16.7,0.8 -26.2,2.2 -26.2,10.5 z"
     id="path3"
     inkscape:connector-curvature="0"
     sodipodi:nodetypes="cccccccccccccccsccccscsccssscssccsscssssccsssscccsccccssccsscccccccccccsccccccssssccssssssssccsssccsccsccccccccccccccccccccccccccccccccssssccsssscscsccssscssccsscs" /></svg>